<?xml version="1.0" encoding="UTF-8"?>
<svg id="Layer_2" data-name="Layer 2" xmlns="http://www.w3.org/2000/svg" viewBox="0 0 360 170">
  <g id="Layer_1-2" data-name="Layer 1">
    <g>
      <path d="M0,34.49V0h56.14l46.89,112.44L149.59,0h45.41l-71.33,170h-41.94L24.6,34.49H0Z"/>
      <g>
        <path d="M230,16.13V0h125.66v29.31l-27.61-4.09v-9.09h-54.69v47.26h54.69v-9.09l27.61-4.09v29.31h-109.9V16.13h-15.76Z"/>
        <path d="M230,152.28v-17.61l15.76-2.84v-41.35h109.9v39.08l-31.94,5.79,36.28,34.65h-38.19l-30.15-28.85-18.3,3.29v25.56h-27.61v-20.56l-15.76,2.84ZM273.37,126.6l54.69-9.88v-10.11h-54.69v19.99Z"/>
      </g>
      <rect x="210.5" y="7.02" width="4" height="145"/>
    </g>
  </g>
</svg>